<?xml version="1.0" encoding="UTF-8"?>
<svg id="Layer_2" data-name="Layer 2" xmlns="http://www.w3.org/2000/svg" viewBox="0 0 202 202">
  <defs>
    <style>
      .cls-1 {
        fill: none;
        stroke: #18345c;
        stroke-miterlimit: 10;
        stroke-width: 2px;
      }

      .cls-2 {
        fill: #18345c;
        stroke-width: 0px;
      }
    </style>
  </defs>
  <g id="Layer_1-2" data-name="Layer 1">
    <g>
      <path class="cls-2" d="M167.77,121.36c-8-1.44-15.55-2.79-29.74.26-14.19,3.06-20.5,7.42-27.2,12.03-7.44,5.12-15.18,10.42-31.84,14.03-16.66,3.6-25.9,1.95-34.78.35-3.6-.72-7.25-1.22-10.92-1.49,4.66,6.58,10.26,12.45,16.62,17.43,1.01.16,1.95.34,2.92.52,7.99,1.44,15.54,2.8,29.73-.26,14.19-3.07,20.44-7.42,27.15-12.03,7.44-5.12,15.18-10.42,31.84-14.03,15.56-3.36,24.6-2.16,32.96-.68,2.45-4.61,4.46-9.44,6-14.42-4.28-.3-8.53-.87-12.74-1.71Z"/>
      <path class="cls-2" d="M161.24,92.38c-7.99-1.44-15.55-2.8-29.74.26-14.19,3.07-20.5,7.4-27.19,12-7.44,5.13-15.18,10.43-31.84,14.04-16.66,3.6-25.91,1.95-34.79.35-5.73-1.24-11.6-1.74-17.46-1.49,1.28,5.51,3.13,10.88,5.5,16.01,8.54-.53,14.71.59,20.73,1.67,8,1.44,15.55,2.8,29.74-.26,14.19-3.07,20.5-7.42,27.2-12.02,7.44-5.13,15.18-10.43,31.84-14.04,16.66-3.6,25.9-1.95,34.79-.35,4.4.92,8.88,1.45,13.38,1.58.76-5.38.98-10.83.66-16.25-9.65.85-16.29-.34-22.83-1.5Z"/>
      <path class="cls-2" d="M95.65,34.82c-14.09,1.03-27.4,6.89-37.68,16.58,2.23,4.04.76,9.13-3.28,11.36-1.23.68-2.62,1.04-4.03,1.04-.89,0-1.77-.14-2.61-.43-8.05,12.69-11.17,27.88-8.79,42.71l.77.14c5.23,1.11,10.56,1.63,15.91,1.55-4.7-24.69,11.16-48.62,35.72-53.93,1.35-.29,2.7-.52,4.05-.69l-.05-18.34Z"/>
      <path class="cls-2" d="M100.99,34.7v18.1c17.47-.13,33.53,9.56,41.55,25.09,5.6-.35,11.21-.04,16.74.92-7.72-25.85-31.31-43.7-58.29-44.11Z"/>
      <path class="cls-2" d="M95.65,15.66c-4.06.28-8.1.84-12.08,1.7C43.09,26.1,15.23,63.31,18.23,104.61c5.15-.39,10.33-.21,15.44.56-.39-2.92-.59-5.86-.6-8.8,0-12.86,3.7-25.44,10.68-36.24-2.59-3.82-1.59-9.01,2.22-11.59,1.38-.94,3.02-1.44,4.69-1.44,1.14,0,2.27.23,3.32.69,11.31-10.8,26.06-17.29,41.67-18.34v-13.79Z"/>
      <path class="cls-2" d="M100.99,15.47v13.82c30.36.44,56.65,21.18,64.15,50.6,5.64,1.14,11.4,1.51,17.14,1.1-8.29-38.26-42.14-65.55-81.29-65.52Z"/>
      <path class="cls-2" d="M144.3,150.89c-14.17,3.04-20.5,7.42-27.19,12.03-7.45,5.12-15.18,10.42-31.84,14.03-2.71.59-5.22,1.01-7.57,1.37,32.79,9.6,68.11-1.84,89.05-28.84-5.84-.7-12.52-.73-22.45,1.42Z"/>
    </g>
    <rect class="cls-1" x="1" y="1" width="200" height="200"/>
  </g>
</svg>