<?xml version="1.0" encoding="UTF-8"?>
<svg id="Layer_2" data-name="Layer 2" xmlns="http://www.w3.org/2000/svg" viewBox="0 0 189.77 189.77">
  <defs>
    <style>
      .cls-1 {
        fill: none;
        stroke: #18345d;
        stroke-miterlimit: 10;
        stroke-width: .75px;
      }

      .cls-2 {
        fill: #18345d;
        stroke-width: 0px;
      }
    </style>
  </defs>
  <g id="Letterhead">
    <g>
      <g>
        <path class="cls-2" d="M151.44,111.89c-6.78-1.22-13.17-2.37-25.19.22-12.01,2.59-17.36,6.28-23.04,10.19-6.3,4.34-12.85,8.83-26.96,11.88-14.11,3.05-21.93,1.65-29.45.3-3.05-.61-6.14-1.03-9.25-1.26,3.95,5.58,8.69,10.55,14.07,14.76.86.14,1.65.29,2.48.44,6.77,1.22,13.16,2.37,25.18-.22,12.01-2.6,17.31-6.28,22.99-10.19,6.3-4.34,12.85-8.83,26.96-11.88,13.18-2.85,20.83-1.83,27.91-.57,2.07-3.9,3.77-7.99,5.08-12.21-3.62-.25-7.23-.73-10.79-1.45Z"/>
        <path class="cls-2" d="M145.91,87.34c-6.77-1.22-13.17-2.37-25.19.22-12.01,2.6-17.36,6.26-23.03,10.16-6.3,4.34-12.85,8.84-26.96,11.89-14.11,3.05-21.94,1.65-29.46.3-4.85-1.05-9.82-1.47-14.78-1.26,1.09,4.67,2.65,9.21,4.66,13.56,7.23-.45,12.46.5,17.56,1.41,6.78,1.22,13.17,2.37,25.19-.22,12.01-2.6,17.36-6.28,23.04-10.18,6.3-4.34,12.85-8.84,26.96-11.89,14.11-3.05,21.93-1.65,29.46-.3,3.73.78,7.52,1.22,11.33,1.34.64-4.56.83-9.17.56-13.76-8.18.72-13.8-.29-19.33-1.27Z"/>
        <path class="cls-2" d="M90.37,38.6c-11.93.87-23.2,5.83-31.91,14.04,1.89,3.42.64,7.73-2.78,9.62-1.04.58-2.22.88-3.41.88-.75,0-1.5-.12-2.21-.36-6.81,10.74-9.46,23.61-7.45,36.17l.65.12c4.43.94,8.95,1.38,13.47,1.31-3.98-20.91,9.45-41.17,30.25-45.67,1.14-.25,2.29-.44,3.43-.58l-.04-15.53Z"/>
        <path class="cls-2" d="M94.88,38.5v15.33c14.79-.11,28.4,8.1,35.19,21.24,4.74-.3,9.5-.03,14.17.78-6.54-21.89-26.52-37.01-49.36-37.36Z"/>
        <path class="cls-2" d="M90.37,22.37c-3.44.23-6.86.71-10.23,1.44-34.28,7.41-57.88,38.92-55.33,73.9,4.36-.33,8.75-.18,13.08.47-.33-2.47-.5-4.96-.51-7.46,0-10.89,3.13-21.54,9.04-30.69-2.19-3.23-1.35-7.63,1.88-9.82,1.17-.79,2.55-1.22,3.97-1.22.97,0,1.92.2,2.81.58,9.58-9.15,22.07-14.65,35.29-15.53v-11.68Z"/>
        <path class="cls-2" d="M94.88,22.21v11.71c25.71.37,47.98,17.93,54.32,42.85,4.77.97,9.66,1.28,14.52.93-7.02-32.4-35.69-55.51-68.84-55.49Z"/>
        <path class="cls-2" d="M131.56,136.89c-12,2.57-17.36,6.28-23.03,10.19-6.31,4.34-12.85,8.83-26.96,11.88-2.3.5-4.42.86-6.41,1.16,27.77,8.13,57.68-1.56,75.41-24.42-4.94-.59-10.6-.62-19.02,1.2Z"/>
      </g>
      <rect class="cls-1" x=".38" y=".38" width="189.02" height="189.02"/>
    </g>
  </g>
</svg>