<?xml version="1.0" encoding="UTF-8"?>
<svg id="Layer_2" data-name="Layer 2" xmlns="http://www.w3.org/2000/svg" viewBox="0 0 86.19 144">
  <defs>
    <style>
      .cls-1 {
        fill: #1b2f4d;
      }

      .cls-1, .cls-2 {
        stroke-width: 0px;
      }

      .cls-2 {
        fill: #fff;
      }
    </style>
  </defs>
  <g id="Layer_1-2" data-name="Layer 1">
    <rect class="cls-1" width="86.19" height="144"/>
    <g>
      <path class="cls-2" d="M66.27,66.75c-2.78-.5-5.41-.97-10.34.09-4.93,1.06-7.13,2.58-9.46,4.18-2.59,1.78-5.28,3.62-11.07,4.88-5.79,1.25-9,.68-12.09.12-1.25-.25-2.52-.42-3.8-.52,1.62,2.29,3.57,4.33,5.78,6.06.35.06.68.12,1.02.18,2.78.5,5.4.97,10.34-.09,4.93-1.07,7.11-2.58,9.44-4.18,2.59-1.78,5.28-3.62,11.07-4.88,5.41-1.17,8.55-.75,11.46-.24.85-1.6,1.55-3.28,2.09-5.01-1.49-.1-2.97-.3-4.43-.59Z"/>
      <path class="cls-2" d="M64,56.67c-2.78-.5-5.41-.97-10.34.09-4.93,1.07-7.13,2.57-9.45,4.17-2.59,1.78-5.28,3.63-11.07,4.88-5.79,1.25-9.01.68-12.1.12-1.99-.43-4.03-.61-6.07-.52.45,1.92,1.09,3.78,1.91,5.57,2.97-.18,5.12.2,7.21.58,2.78.5,5.41.97,10.34-.09,4.93-1.07,7.13-2.58,9.46-4.18,2.59-1.78,5.28-3.63,11.07-4.88,5.79-1.25,9-.68,12.1-.12,1.53.32,3.09.5,4.65.55.26-1.87.34-3.76.23-5.65-3.36.3-5.66-.12-7.94-.52Z"/>
      <path class="cls-2" d="M41.2,36.66c-4.9.36-9.53,2.39-13.1,5.76.78,1.41.26,3.17-1.14,3.95-.43.24-.91.36-1.4.36-.31,0-.62-.05-.91-.15-2.8,4.41-3.88,9.69-3.06,14.85l.27.05c1.82.39,3.67.57,5.53.54-1.63-8.58,3.88-16.9,12.42-18.75.47-.1.94-.18,1.41-.24l-.02-6.38Z"/>
      <path class="cls-2" d="M43.05,36.62v6.29c6.07-.05,11.66,3.33,14.45,8.72,1.95-.12,3.9-.01,5.82.32-2.68-8.99-10.89-15.19-20.26-15.34Z"/>
      <path class="cls-2" d="M41.2,30c-1.41.1-2.82.29-4.2.59-14.07,3.04-23.76,15.98-22.72,30.34,1.79-.14,3.59-.07,5.37.19-.14-1.01-.2-2.04-.21-3.06,0-4.47,1.29-8.84,3.71-12.6-.9-1.33-.55-3.13.77-4.03.48-.33,1.05-.5,1.63-.5.4,0,.79.08,1.15.24,3.93-3.76,9.06-6.01,14.49-6.38v-4.8Z"/>
      <path class="cls-2" d="M43.05,29.93v4.81c10.55.15,19.7,7.36,22.3,17.59,1.96.4,3.97.53,5.96.38-2.88-13.3-14.65-22.79-28.26-22.78Z"/>
      <path class="cls-2" d="M58.11,77.02c-4.93,1.06-7.13,2.58-9.45,4.18-2.59,1.78-5.28,3.62-11.07,4.88-.94.2-1.82.35-2.63.47,11.4,3.34,23.68-.64,30.96-10.03-2.03-.24-4.35-.25-7.81.49Z"/>
    </g>
  </g>
</svg>