<?xml version="1.0" encoding="UTF-8"?>
<svg id="Layer_2" data-name="Layer 2" xmlns="http://www.w3.org/2000/svg" viewBox="0 0 265.97 444.39">
  <defs>
    <style>
      .cls-1 {
        fill: #1b2f4d;
      }

      .cls-1, .cls-2 {
        stroke-width: 0px;
      }

      .cls-2 {
        fill: #fff;
      }
    </style>
  </defs>
  <g id="Layer_1-2" data-name="Layer 1">
    <rect class="cls-1" width="265.97" height="444.39"/>
    <g>
      <path class="cls-2" d="M204.51,205.99c-8.59-1.54-16.69-3-31.91.28-15.22,3.28-22,7.96-29.18,12.91-7.98,5.49-16.29,11.18-34.16,15.05-17.87,3.87-27.78,2.1-37.32.38-3.87-.78-7.78-1.31-11.72-1.6,5,7.06,11.01,13.36,17.83,18.7,1.09.17,2.1.37,3.14.55,8.58,1.54,16.68,3.01,31.9-.28s21.93-7.96,29.13-12.91c7.98-5.49,16.29-11.18,34.16-15.05,16.7-3.6,26.39-2.31,35.36-.73,2.63-4.94,4.78-10.12,6.44-15.47-4.59-.32-9.16-.93-13.67-1.83Z"/>
      <path class="cls-2" d="M197.5,174.9c-8.58-1.54-16.69-3.01-31.91.28-15.22,3.29-22,7.94-29.17,12.88-7.98,5.5-16.29,11.19-34.16,15.06-17.87,3.87-27.8,2.1-37.33.38-6.15-1.33-12.44-1.87-18.73-1.6,1.37,5.91,3.35,11.67,5.91,17.18,9.16-.56,15.79.63,22.25,1.79,8.59,1.54,16.69,3.01,31.91-.28,15.22-3.29,22-7.96,29.18-12.9,7.98-5.5,16.29-11.19,34.16-15.06,17.87-3.87,27.78-2.1,37.33-.38,4.73.98,9.53,1.55,14.35,1.69.81-5.77,1.05-11.62.71-17.44-10.36.91-17.48-.37-24.49-1.61Z"/>
      <path class="cls-2" d="M127.13,113.14c-15.12,1.11-29.4,7.39-40.43,17.78,2.39,4.34.82,9.79-3.52,12.18-1.32.73-2.81,1.11-4.32,1.12-.95,0-1.9-.15-2.8-.46-8.63,13.61-11.99,29.91-9.44,45.83l.83.15c5.61,1.19,11.33,1.75,17.07,1.66-5.04-26.49,11.97-52.17,38.33-57.86,1.44-.31,2.9-.55,4.34-.74l-.05-19.67Z"/>
      <path class="cls-2" d="M132.86,113.01v19.42c18.74-.14,35.98,10.26,44.58,26.92,6-.37,12.03-.04,17.96.99-8.28-27.73-33.6-46.89-62.54-47.33Z"/>
      <path class="cls-2" d="M127.13,92.57c-4.36.3-8.69.91-12.96,1.82-43.43,9.38-73.33,49.31-70.11,93.62,5.53-.42,11.09-.22,16.57.6-.42-3.13-.63-6.29-.64-9.45-.01-13.79,3.97-27.3,11.45-38.88-2.78-4.09-1.71-9.66,2.39-12.44,1.48-1.01,3.24-1.54,5.03-1.54,1.23,0,2.44.25,3.56.74,12.14-11.59,27.96-18.55,44.71-19.67v-14.8Z"/>
      <path class="cls-2" d="M132.86,92.38v14.83c32.57.47,60.78,22.72,68.83,54.29,6.05,1.22,12.24,1.62,18.39,1.18-8.89-41.05-45.22-70.33-87.22-70.3Z"/>
      <path class="cls-2" d="M179.32,237.67c-15.2,3.26-22,7.96-29.17,12.91-7.99,5.49-16.29,11.18-34.16,15.05-2.91.63-5.6,1.09-8.12,1.47,35.18,10.3,73.08-1.97,95.55-30.94-6.26-.75-13.43-.78-24.09,1.52Z"/>
    </g>
  </g>
</svg>