<?xml version="1.0" encoding="UTF-8"?>
<svg id="Layer_2" data-name="Layer 2" xmlns="http://www.w3.org/2000/svg" viewBox="0 0 24.68 24.68">
  <defs>
    <style>
      .cls-1 {
        fill: #003361;
        stroke-width: 0px;
      }
    </style>
  </defs>
  <g id="Layer_1-2" data-name="Layer 1">
    <g>
      <path class="cls-1" d="M17.61,8.35c-.12-.32-.27-.54-.51-.78-.24-.24-.46-.38-.78-.51-.24-.09-.6-.2-1.26-.23-.71-.03-.93-.04-2.73-.04s-2.02,0-2.73.04c-.66.03-1.02.14-1.26.23-.32.12-.54.27-.78.51-.24.24-.38.46-.51.78-.09.24-.2.6-.23,1.26-.03.71-.04.93-.04,2.73s0,2.02.04,2.73c.03.66.14,1.02.23,1.26.12.32.27.54.51.78.24.24.46.38.78.51.24.09.6.2,1.26.23.71.03.93.04,2.73.04s2.02,0,2.73-.04c.66-.03,1.02-.14,1.26-.23.32-.12.54-.27.78-.51.24-.24.38-.46.51-.78.09-.24.2-.6.23-1.26.03-.71.04-.93.04-2.73s0-2.02-.04-2.73c-.03-.66-.14-1.02-.23-1.26ZM12.34,15.81c-1.92,0-3.47-1.56-3.47-3.47s1.56-3.47,3.47-3.47,3.47,1.56,3.47,3.47-1.56,3.47-3.47,3.47ZM15.95,9.54c-.45,0-.81-.36-.81-.81s.36-.81.81-.81.81.36.81.81-.36.81-.81.81Z"/>
      <path class="cls-1" d="M12.34,10.08c-1.25,0-2.26,1.01-2.26,2.26s1.01,2.26,2.26,2.26,2.26-1.01,2.26-2.26-1.01-2.26-2.26-2.26Z"/>
      <path class="cls-1" d="M12.34,0C5.52,0,0,5.52,0,12.34h0c0,6.82,5.52,12.34,12.34,12.34s12.34-5.52,12.34-12.34h0C24.68,5.52,19.16,0,12.34,0ZM19.07,15.13c-.03.72-.15,1.21-.31,1.64-.17.44-.4.82-.78,1.2-.38.38-.75.61-1.2.78-.43.17-.92.28-1.64.31-.72.03-.95.04-2.79.04s-2.07,0-2.79-.04c-.72-.03-1.21-.15-1.64-.31-.45-.17-.82-.4-1.2-.78s-.61-.75-.78-1.2c-.17-.43-.28-.92-.31-1.64-.03-.72-.04-.95-.04-2.79s0-2.07.04-2.79c.03-.72.15-1.21.31-1.64.17-.44.4-.82.78-1.2s.75-.61,1.2-.78c.43-.17.92-.28,1.64-.31.72-.03.95-.04,2.79-.04s2.07,0,2.79.04c.72.03,1.21.15,1.64.31.45.17.82.4,1.2.78.38.38.61.75.78,1.2.17.43.28.92.31,1.64.03.72.04.95.04,2.79s0,2.07-.04,2.79Z"/>
    </g>
  </g>
</svg>