<?xml version="1.0" encoding="UTF-8"?>
<svg id="Layer_2" data-name="Layer 2" xmlns="http://www.w3.org/2000/svg" viewBox="0 0 14.98 14.98">
  <defs>
    <style>
      .cls-1 {
        fill: #003361;
        stroke-width: 0px;
      }
    </style>
  </defs>
  <g id="Layer_1-2" data-name="Layer 1">
    <g>
      <path class="cls-1" d="M10.69,5.07c-.07-.19-.16-.33-.31-.47-.14-.14-.28-.23-.47-.31-.14-.06-.36-.12-.76-.14-.43-.02-.56-.02-1.66-.02s-1.23,0-1.66.02c-.4.02-.62.09-.76.14-.19.07-.33.16-.47.31-.14.14-.23.28-.31.47-.06.14-.12.36-.14.76-.02.43-.02.56-.02,1.66s0,1.23.02,1.66c.02.4.09.62.14.76.07.19.16.33.31.47.14.14.28.23.47.31.14.06.36.12.76.14.43.02.56.02,1.66.02s1.23,0,1.66-.02c.4-.02.62-.09.76-.14.19-.07.33-.16.47-.31.14-.14.23-.28.31-.47.06-.14.12-.36.14-.76.02-.43.02-.56.02-1.66s0-1.23-.02-1.66c-.02-.4-.09-.62-.14-.76ZM7.49,9.6c-1.16,0-2.11-.94-2.11-2.11s.94-2.11,2.11-2.11,2.11.94,2.11,2.11-.94,2.11-2.11,2.11ZM9.68,5.79c-.27,0-.49-.22-.49-.49s.22-.49.49-.49.49.22.49.49-.22.49-.49.49Z"/>
      <path class="cls-1" d="M7.49,6.12c-.76,0-1.37.61-1.37,1.37s.61,1.37,1.37,1.37,1.37-.61,1.37-1.37-.61-1.37-1.37-1.37Z"/>
      <path class="cls-1" d="M7.49,0C3.35,0,0,3.35,0,7.49h0c0,4.14,3.35,7.49,7.49,7.49s7.49-3.35,7.49-7.49h0C14.98,3.35,11.62,0,7.49,0ZM11.57,9.18c-.02.44-.09.74-.19,1-.1.27-.25.5-.47.73-.23.23-.46.37-.73.47-.26.1-.56.17-1,.19-.44.02-.58.02-1.69.02s-1.25,0-1.69-.02c-.44-.02-.74-.09-1-.19-.27-.1-.5-.25-.73-.47s-.37-.46-.47-.73c-.1-.26-.17-.56-.19-1-.02-.44-.02-.58-.02-1.69s0-1.25.02-1.69c.02-.44.09-.74.19-1,.1-.27.25-.5.47-.73s.46-.37.73-.47c.26-.1.56-.17,1-.19.44-.02.58-.02,1.69-.02s1.25,0,1.69.02c.44.02.74.09,1,.19.27.1.5.25.73.47.23.23.37.46.47.73.1.26.17.56.19,1,.02.44.02.58.02,1.69s0,1.25-.02,1.69Z"/>
    </g>
  </g>
</svg>