<?xml version="1.0" encoding="UTF-8"?>
<svg id="Layer_2" data-name="Layer 2" xmlns="http://www.w3.org/2000/svg" viewBox="0 0 24.68 24.68">
  <defs>
    <style>
      .cls-1 {
        fill: #003361;
        stroke-width: 0px;
      }
    </style>
  </defs>
  <g id="Layer_1-2" data-name="Layer 1">
    <path class="cls-1" d="M12.34,0C5.52,0,0,5.52,0,12.34h0c0,6.82,5.52,12.34,12.34,12.34s12.34-5.52,12.34-12.34h0C24.68,5.52,19.16,0,12.34,0ZM9.3,17.84h-2.55v-8.25h2.55v8.25ZM8.01,8.51c-.83,0-1.51-.68-1.51-1.52s.68-1.52,1.51-1.52,1.51.68,1.51,1.52-.68,1.52-1.51,1.52ZM18.87,17.84h-2.54v-4.33c0-1.19-.45-1.85-1.39-1.85-1.02,0-1.56.69-1.56,1.85v4.33h-2.45v-8.25h2.45v1.11s.74-1.36,2.49-1.36,3,1.07,3,3.28v5.22Z"/>
  </g>
</svg>