<?xml version="1.0" encoding="UTF-8"?>
<svg id="Layer_2" data-name="Layer 2" xmlns="http://www.w3.org/2000/svg" viewBox="0 0 53.6 53.6">
  <defs>
    <style>
      .cls-1 {
        fill: #18345d;
        stroke-width: 0px;
      }

      .cls-2 {
        fill: none;
        stroke: #18345d;
        stroke-miterlimit: 10;
        stroke-width: .5px;
      }
    </style>
  </defs>
  <g id="Letterhead">
    <g>
      <path class="cls-1" d="M44.53,32.21c-2.13-.38-4.13-.74-7.9.07-3.77.81-5.44,1.97-7.22,3.19-1.97,1.36-4.03,2.77-8.45,3.72-4.42.96-6.88.52-9.23.09-.96-.19-1.93-.32-2.9-.39,1.24,1.75,2.72,3.31,4.41,4.63.27.04.52.09.78.14,2.12.38,4.13.74,7.89-.07s5.43-1.97,7.21-3.19c1.97-1.36,4.03-2.77,8.45-3.72,4.13-.89,6.53-.57,8.75-.18.65-1.22,1.18-2.51,1.59-3.83-1.14-.08-2.27-.23-3.38-.45Z"/>
      <path class="cls-1" d="M42.79,24.51c-2.12-.38-4.13-.74-7.9.07s-5.44,1.96-7.22,3.19c-1.97,1.36-4.03,2.77-8.45,3.73-4.42.96-6.88.52-9.24.09-1.52-.33-3.08-.46-4.63-.39.34,1.46.83,2.89,1.46,4.25,2.27-.14,3.91.16,5.51.44,2.13.38,4.13.74,7.9-.07,3.77-.81,5.44-1.97,7.22-3.19,1.97-1.36,4.03-2.77,8.45-3.73s6.88-.52,9.24-.09c1.17.24,2.36.38,3.55.42.2-1.43.26-2.87.17-4.31-2.56.23-4.33-.09-6.06-.4Z"/>
      <path class="cls-1" d="M25.38,9.23c-3.74.27-7.27,1.83-10.01,4.4.59,1.07.2,2.42-.87,3.02-.33.18-.69.28-1.07.28-.24,0-.47-.04-.69-.11-2.14,3.37-2.97,7.4-2.33,11.34l.2.04c1.39.29,2.8.43,4.22.41-1.25-6.56,2.96-12.91,9.48-14.32.36-.08.72-.14,1.07-.18v-4.87Z"/>
      <path class="cls-1" d="M26.8,9.2v4.81c4.64-.04,8.9,2.54,11.03,6.66,1.49-.09,2.98-.01,4.44.24-2.05-6.86-8.31-11.6-15.48-11.71Z"/>
      <path class="cls-1" d="M25.38,4.14c-1.08.07-2.15.22-3.21.45C11.43,6.91,4.03,16.79,4.83,27.76c1.37-.1,2.74-.06,4.1.15-.1-.77-.16-1.56-.16-2.34,0-3.41.98-6.75,2.83-9.62-.69-1.01-.42-2.39.59-3.08.37-.25.8-.38,1.24-.38.3,0,.6.06.88.18,3-2.87,6.92-4.59,11.06-4.87v-3.66Z"/>
      <path class="cls-1" d="M26.8,4.09v3.67c8.06.12,15.04,5.62,17.03,13.43,1.5.3,3.03.4,4.55.29-2.2-10.16-11.19-17.4-21.58-17.4Z"/>
      <path class="cls-1" d="M38.3,40.05c-3.76.81-5.44,1.97-7.22,3.19-1.98,1.36-4.03,2.77-8.45,3.72-.72.16-1.39.27-2.01.36,8.71,2.55,18.08-.49,23.64-7.66-1.55-.19-3.32-.19-5.96.38Z"/>
    </g>
    <rect class="cls-2" x=".25" y=".25" width="53.1" height="53.1"/>
  </g>
</svg>