<?xml version="1.0" encoding="UTF-8"?>
<svg id="Layer_2" data-name="Layer 2" xmlns="http://www.w3.org/2000/svg" viewBox="0 0 324.67 324.67">
  <defs>
    <style>
      .cls-1 {
        fill: none;
        stroke: #18345d;
        stroke-miterlimit: 10;
        stroke-width: 3px;
      }

      .cls-2 {
        fill: #18345d;
        stroke-width: 0px;
      }
    </style>
  </defs>
  <g id="Letterhead">
    <g>
      <path class="cls-2" d="M269.73,195.08c-12.87-2.31-25.01-4.49-47.83.42-22.82,4.92-32.97,11.93-43.75,19.35-11.96,8.24-24.41,16.76-51.2,22.56-26.79,5.79-41.65,3.14-55.94.57-5.8-1.16-11.66-1.96-17.56-2.39,7.5,10.59,16.5,20.03,26.72,28.03,1.63.26,3.14.55,4.7.83,12.86,2.31,25,4.51,47.82-.42,22.82-4.93,32.88-11.93,43.67-19.35,11.96-8.24,24.41-16.76,51.2-22.56,25.03-5.4,39.57-3.47,53.01-1.09,3.94-7.41,7.17-15.18,9.65-23.19-6.88-.48-13.73-1.4-20.49-2.75Z"/>
      <path class="cls-2" d="M259.22,148.47c-12.86-2.31-25.02-4.51-47.83.42-22.82,4.93-32.97,11.9-43.73,19.3-11.96,8.25-24.41,16.78-51.2,22.57-26.79,5.79-41.66,3.14-55.95.57-9.22-2-18.65-2.8-28.07-2.39,2.06,8.86,5.03,17.49,8.85,25.75,13.74-.85,23.66.94,33.35,2.69,12.87,2.31,25.02,4.51,47.83-.42,22.82-4.93,32.97-11.93,43.75-19.33,11.96-8.25,24.41-16.78,51.2-22.57,26.79-5.79,41.65-3.14,55.95-.57,7.08,1.48,14.28,2.32,21.52,2.54,1.22-8.66,1.57-17.41,1.06-26.14-15.53,1.37-26.2-.55-36.72-2.41Z"/>
      <path class="cls-2" d="M153.74,55.9c-22.67,1.66-44.07,11.08-60.61,26.66,3.59,6.5,1.22,14.68-5.28,18.26-1.98,1.09-4.21,1.67-6.47,1.67-1.43,0-2.85-.23-4.2-.68-12.94,20.41-17.97,44.84-14.14,68.7l1.24.23c8.41,1.79,16.99,2.62,25.58,2.49-7.55-39.71,17.94-78.2,57.45-86.73,2.16-.47,4.35-.83,6.51-1.11l-.08-29.49Z"/>
      <path class="cls-2" d="M162.31,55.7v29.12c28.1-.21,53.93,15.38,66.83,40.35,9-.56,18.04-.06,26.92,1.48-12.42-41.57-50.36-70.29-93.75-70.94Z"/>
      <path class="cls-2" d="M153.74,25.07c-6.53.44-13.03,1.36-19.43,2.73C69.2,41.87,24.39,101.72,29.21,168.15c8.29-.63,16.62-.33,24.84.9-.62-4.69-.95-9.42-.96-14.16-.02-20.68,5.95-40.92,17.17-58.28-4.16-6.14-2.56-14.49,3.58-18.65,2.22-1.51,4.85-2.31,7.54-2.31,1.84,0,3.65.37,5.34,1.11,18.2-17.38,41.92-27.81,67.02-29.49v-22.18Z"/>
      <path class="cls-2" d="M162.31,24.78v22.23c48.82.7,91.11,34.06,103.17,81.38,9.07,1.83,18.34,2.43,27.57,1.77-13.33-61.53-67.78-105.42-130.74-105.38Z"/>
      <path class="cls-2" d="M231.97,242.57c-22.79,4.88-32.97,11.93-43.73,19.35-11.98,8.24-24.41,16.76-51.2,22.56-4.36.94-8.4,1.63-12.17,2.2,52.74,15.44,109.55-2.96,143.22-46.38-9.39-1.12-20.13-1.17-36.11,2.28Z"/>
    </g>
    <rect class="cls-1" x="1.5" y="1.5" width="321.67" height="321.67"/>
  </g>
</svg>