<?xml version="1.0" encoding="UTF-8"?>
<svg id="Layer_2" data-name="Layer 2" xmlns="http://www.w3.org/2000/svg" viewBox="0 0 164.24 164.23">
  <defs>
    <style>
      .cls-1 {
        fill: #10335d;
        stroke-width: 0px;
      }
    </style>
  </defs>
  <g id="Layer_1-2" data-name="Layer 1">
    <g>
      <path class="cls-1" d="M148,104.64c-7.91-1.42-15.37-2.76-29.39.26s-20.26,7.33-26.88,11.89c-7.35,5.06-15,10.3-31.46,13.86-16.46,3.56-25.59,1.93-34.37.35-3.56-.71-7.17-1.21-10.79-1.47,4.61,6.51,10.14,12.31,16.42,17.22,1,.16,1.93.34,2.89.51,7.9,1.42,15.36,2.77,29.38-.26s20.2-7.33,26.83-11.89c7.35-5.06,15-10.3,31.46-13.86,15.38-3.32,24.31-2.13,32.57-.67,2.42-4.55,4.4-9.32,5.93-14.25-4.23-.29-8.43-.86-12.59-1.69Z"/>
      <path class="cls-1" d="M141.54,76c-7.9-1.42-15.37-2.77-29.39.26s-20.26,7.31-26.87,11.86c-7.35,5.07-15,10.31-31.46,13.87-16.46,3.56-25.6,1.93-34.38.35-5.66-1.23-11.46-1.72-17.25-1.47,1.27,5.45,3.09,10.75,5.44,15.82,8.44-.52,14.54.58,20.49,1.65,7.91,1.42,15.37,2.77,29.39-.26s20.26-7.33,26.88-11.88c7.35-5.07,15-10.31,31.46-13.87s25.59-1.93,34.38-.35c4.35.91,8.78,1.43,13.22,1.56.75-5.32.97-10.7.65-16.06-9.54.84-16.1-.34-22.56-1.48Z"/>
      <path class="cls-1" d="M76.73,19.12c-13.93,1.02-27.08,6.81-37.24,16.38,2.2,3.99.75,9.02-3.24,11.22-1.22.67-2.59,1.03-3.98,1.03-.88,0-1.75-.14-2.58-.42-7.95,12.54-11.04,27.55-8.69,42.21l.76.14c5.17,1.1,10.44,1.61,15.72,1.53-4.64-24.4,11.02-48.05,35.3-53.29,1.33-.29,2.67-.51,4-.68l-.05-18.12Z"/>
      <path class="cls-1" d="M82,19v17.89c17.26-.13,33.14,9.45,41.06,24.79,5.53-.35,11.08-.04,16.54.91-7.63-25.54-30.94-43.19-57.6-43.59Z"/>
      <path class="cls-1" d="M76.73.18c-4.02.27-8.01.83-11.94,1.68C24.79,10.5-2.75,47.27.22,88.09c5.09-.39,10.21-.2,15.26.55-.38-2.88-.58-5.79-.59-8.7,0-12.7,3.65-25.14,10.55-35.81-2.56-3.77-1.57-8.9,2.2-11.46,1.37-.93,2.98-1.42,4.63-1.42,1.13,0,2.25.23,3.28.68,11.18-10.68,25.75-17.09,41.18-18.12V.18Z"/>
      <path class="cls-1" d="M82,0v13.66c30,.43,55.98,20.93,63.39,50,5.57,1.13,11.27,1.49,16.94,1.09C154.14,26.94,120.68-.02,82,0Z"/>
      <path class="cls-1" d="M124.8,133.82c-14,3-20.26,7.33-26.87,11.89-7.36,5.06-15,10.3-31.46,13.86-2.68.58-5.16,1-7.48,1.35,32.4,9.49,67.31-1.82,88-28.5-5.77-.69-12.37-.72-22.19,1.4Z"/>
    </g>
  </g>
</svg>