<?xml version="1.0" encoding="UTF-8"?>
<svg id="Layer_2" data-name="Layer 2" xmlns="http://www.w3.org/2000/svg" viewBox="0 0 37.61 62.84">
  <defs>
    <style>
      .cls-1 {
        fill: #1b2f4d;
      }

      .cls-1, .cls-2 {
        stroke-width: 0px;
      }

      .cls-2 {
        fill: #fff;
      }
    </style>
  </defs>
  <g id="Layer_1-2" data-name="Layer 1">
    <g>
      <rect class="cls-1" width="37.61" height="62.84"/>
      <g>
        <path class="cls-2" d="M28.92,29.13c-1.21-.22-2.36-.42-4.51.04s-3.11,1.13-4.13,1.83c-1.13.78-2.3,1.58-4.83,2.13-2.53.55-3.93.3-5.28.05-.55-.11-1.1-.19-1.66-.23.71,1,1.56,1.89,2.52,2.64.15.02.3.05.44.08,1.21.22,2.36.43,4.51-.04s3.1-1.13,4.12-1.83c1.13-.78,2.3-1.58,4.83-2.13,2.36-.51,3.73-.33,5-.1.37-.7.68-1.43.91-2.19-.65-.04-1.29-.13-1.93-.26Z"/>
        <path class="cls-2" d="M27.93,24.73c-1.21-.22-2.36-.43-4.51.04s-3.11,1.12-4.13,1.82c-1.13.78-2.3,1.58-4.83,2.13s-3.93.3-5.28.05c-.87-.19-1.76-.26-2.65-.23.19.84.47,1.65.84,2.43,1.3-.08,2.23.09,3.15.25,1.21.22,2.36.43,4.51-.04s3.11-1.13,4.13-1.82c1.13-.78,2.3-1.58,4.83-2.13s3.93-.3,5.28-.05c.67.14,1.35.22,2.03.24.11-.82.15-1.64.1-2.47-1.46.13-2.47-.05-3.46-.23Z"/>
        <path class="cls-2" d="M17.98,16c-2.14.16-4.16,1.04-5.72,2.51.34.61.12,1.38-.5,1.72-.19.1-.4.16-.61.16-.13,0-.27-.02-.4-.06-1.22,1.92-1.7,4.23-1.33,6.48l.12.02c.79.17,1.6.25,2.41.23-.71-3.75,1.69-7.38,5.42-8.18.2-.04.41-.08.61-.1v-2.78Z"/>
        <path class="cls-2" d="M18.79,15.98v2.75c2.65-.02,5.09,1.45,6.3,3.81.85-.05,1.7,0,2.54.14-1.17-3.92-4.75-6.63-8.84-6.69Z"/>
        <path class="cls-2" d="M17.98,13.09c-.62.04-1.23.13-1.83.26-6.14,1.33-10.37,6.97-9.91,13.24.78-.06,1.57-.03,2.34.08-.06-.44-.09-.89-.09-1.34,0-1.95.56-3.86,1.62-5.5-.39-.58-.24-1.37.34-1.76.21-.14.46-.22.71-.22.17,0,.34.04.5.1,1.72-1.64,3.95-2.62,6.32-2.78v-2.09Z"/>
        <path class="cls-2" d="M18.79,13.06v2.1c4.61.07,8.59,3.21,9.73,7.68.86.17,1.73.23,2.6.17-1.26-5.8-6.39-9.94-12.33-9.94Z"/>
        <path class="cls-2" d="M25.36,33.61c-2.15.46-3.11,1.13-4.13,1.83-1.13.78-2.3,1.58-4.83,2.13-.41.09-.79.15-1.15.21,4.97,1.46,10.33-.28,13.51-4.38-.89-.11-1.9-.11-3.41.21Z"/>
      </g>
    </g>
  </g>
</svg>